<svg width="39" height="57" viewBox="0 0 39 57" fill="none" xmlns="http://www.w3.org/2000/svg">
<g id="Figma svg" clip-path="url(#clip0_1476_117)">
<path id="Vector" d="M19.5986 28.3671C19.5986 23.2502 23.7467 19.1021 28.8637 19.1021C33.9806 19.1021 38.1288 23.2502 38.1288 28.3671C38.1288 33.4841 33.9806 37.6322 28.8637 37.6322C23.7467 37.6322 19.5986 33.4841 19.5986 28.3671Z" fill="#1ABCFE"/>
<path id="Vector_2" d="M1.06836 46.8974C1.06836 41.7805 5.21646 37.6323 10.3334 37.6323H19.5985V46.8974C19.5985 52.0144 15.4504 56.1625 10.3334 56.1625C5.21646 56.1625 1.06836 52.0144 1.06836 46.8974Z" fill="#0ACF83"/>
<path id="Vector_3" d="M19.5986 0.572021V19.1021H28.8637C33.9807 19.1021 38.1288 14.954 38.1288 9.83708C38.1288 4.72013 33.9807 0.572021 28.8637 0.572021H19.5986Z" fill="#FF7262"/>
<path id="Vector_4" d="M1.06836 9.83709C1.06836 14.954 5.21646 19.1021 10.3334 19.1021H19.5985V0.572021H10.3334C5.21646 0.572021 1.06836 4.72013 1.06836 9.83709Z" fill="#F24E1E"/>
<path id="Vector_5" d="M1.06836 28.3671C1.06836 33.4841 5.21646 37.6322 10.3334 37.6322H19.5985V19.1021H10.3334C5.21646 19.1021 1.06836 23.2502 1.06836 28.3671Z" fill="#A259FF"/>
</g>
<defs>
<clipPath id="clip0_1476_117">
<rect width="37.4414" height="56.1622" fill="white" transform="translate(0.87793 0.286133)"/>
</clipPath>
</defs>
</svg>
