<svg width="48" height="13" viewBox="0 0 48 13" fill="none" xmlns="http://www.w3.org/2000/svg">
<g id="Group">
<g id="Group_2">
<path id="Vector" d="M15.4937 9.5035L16.0851 8.12577C16.7243 8.60415 17.5733 8.8529 18.4128 8.8529C19.0329 8.8529 19.424 8.61371 19.424 8.25015C19.4145 7.23599 15.7131 8.03009 15.6844 5.48513C15.6749 4.19351 16.8197 3.19849 18.4414 3.19849C19.4049 3.19849 20.3684 3.43768 21.0553 3.98303L20.502 5.38945C19.8724 4.98762 19.0901 4.70059 18.346 4.70059C17.8404 4.70059 17.5065 4.93978 17.5065 5.24594C17.5161 6.24096 21.2461 5.69562 21.2842 8.12577C21.2842 9.44609 20.1681 10.3741 18.5654 10.3741C17.392 10.3741 16.3141 10.0967 15.4937 9.5035Z" fill="white"/>
<path id="Vector_2" d="M38.1886 7.62826C37.8929 8.1449 37.3396 8.4989 36.7004 8.4989C35.756 8.4989 34.9928 7.7335 34.9928 6.78631C34.9928 5.83913 35.756 5.07372 36.7004 5.07372C37.3396 5.07372 37.8929 5.42772 38.1886 5.94437L39.8199 5.03545C39.2094 3.94475 38.036 3.19849 36.7004 3.19849C34.7257 3.19849 33.123 4.80583 33.123 6.78631C33.123 8.7668 34.7257 10.3741 36.7004 10.3741C38.0455 10.3741 39.2094 9.63744 39.8199 8.53717L38.1886 7.62826Z" fill="white"/>
<path id="Vector_3" d="M24.146 0.2229H22.1045V10.2401H24.146V0.2229Z" fill="white"/>
<path id="Vector_4" d="M40.6211 0.2229V10.2401H42.6626V7.23591L45.0857 10.2401H47.6995L44.6182 6.67142L47.4706 3.34192H44.9712L42.6626 6.10694V0.2229H40.6211Z" fill="white"/>
<path id="Vector_5" d="M30.2134 7.64739C29.9176 8.13534 29.3071 8.4989 28.6202 8.4989C27.6758 8.4989 26.9126 7.7335 26.9126 6.78631C26.9126 5.83913 27.6758 5.07372 28.6202 5.07372C29.3071 5.07372 29.9176 5.45643 30.2134 5.95394V7.64739ZM30.2134 3.342V4.15524C29.8795 3.59076 29.0495 3.19849 28.1814 3.19849C26.3879 3.19849 24.9761 4.7867 24.9761 6.77675C24.9761 8.76679 26.3879 10.3741 28.1814 10.3741C29.0495 10.3741 29.8795 9.98187 30.2134 9.41739V10.2306H32.2549V3.342H30.2134Z" fill="white"/>
</g>
<g id="Group_3">
<g id="Group_4">
<path id="Vector_6" d="M2.87297 7.63767C2.87297 8.3361 2.31013 8.90059 1.61373 8.90059C0.917333 8.90059 0.354492 8.3361 0.354492 7.63767C0.354492 6.93924 0.917333 6.37476 1.61373 6.37476H2.87297V7.63767Z" fill="white"/>
<path id="Vector_7" d="M3.50244 7.63767C3.50244 6.93924 4.06528 6.37476 4.76168 6.37476C5.45808 6.37476 6.02092 6.93924 6.02092 7.63767V10.795C6.02092 11.4934 5.45808 12.0579 4.76168 12.0579C4.06528 12.0579 3.50244 11.4934 3.50244 10.795V7.63767Z" fill="white"/>
</g>
<g id="Group_5">
<path id="Vector_8" d="M4.76168 2.56685C4.06528 2.56685 3.50244 2.00236 3.50244 1.30393C3.50244 0.605501 4.06528 0.0410156 4.76168 0.0410156C5.45808 0.0410156 6.02092 0.605501 6.02092 1.30393V2.56685H4.76168Z" fill="white"/>
<path id="Vector_9" d="M4.7616 3.20776C5.45799 3.20776 6.02083 3.77225 6.02083 4.47068C6.02083 5.16911 5.45799 5.73359 4.7616 5.73359H1.60396C0.907568 5.73359 0.344727 5.16911 0.344727 4.47068C0.344727 3.77225 0.907568 3.20776 1.60396 3.20776H4.7616Z" fill="white"/>
</g>
<g id="Group_6">
<path id="Vector_10" d="M9.80811 4.47068C9.80811 3.77225 10.3709 3.20776 11.0673 3.20776C11.7637 3.20776 12.3266 3.77225 12.3266 4.47068C12.3266 5.16911 11.7637 5.73359 11.0673 5.73359H9.80811V4.47068Z" fill="white"/>
<path id="Vector_11" d="M9.17863 4.47079C9.17863 5.16922 8.61579 5.7337 7.91939 5.7337C7.223 5.7337 6.66016 5.16922 6.66016 4.47079V1.30393C6.66016 0.605501 7.223 0.0410156 7.91939 0.0410156C8.61579 0.0410156 9.17863 0.605501 9.17863 1.30393V4.47079Z" fill="white"/>
</g>
<g id="Group_7">
<path id="Vector_12" d="M7.91939 9.53198C8.61579 9.53198 9.17863 10.0965 9.17863 10.7949C9.17863 11.4933 8.61579 12.0578 7.91939 12.0578C7.223 12.0578 6.66016 11.4933 6.66016 10.7949V9.53198H7.91939Z" fill="white"/>
<path id="Vector_13" d="M7.91939 8.90059C7.223 8.90059 6.66016 8.3361 6.66016 7.63767C6.66016 6.93924 7.223 6.37476 7.91939 6.37476H11.077C11.7734 6.37476 12.3363 6.93924 12.3363 7.63767C12.3363 8.3361 11.7734 8.90059 11.077 8.90059H7.91939Z" fill="white"/>
</g>
</g>
</g>
</svg>
