<svg width="60" height="12" viewBox="0 0 60 12" fill="none" xmlns="http://www.w3.org/2000/svg">
<g id="monday.com svg" clip-path="url(#clip0_1476_954)">
<g id="g853">
<g id="g847">
<path id="path841" d="M1.27523 9.18731C1.05651 9.18779 0.841583 9.1302 0.652408 9.02043C0.463232 8.91065 0.306587 8.75262 0.198476 8.56249C0.0920195 8.37369 0.0389268 8.1595 0.0448852 7.94284C0.0508437 7.72618 0.115629 7.51522 0.232301 7.33257L2.44969 3.85045C2.56318 3.66331 2.72431 3.50964 2.91662 3.40515C3.10893 3.30066 3.32553 3.24908 3.54429 3.25569C3.76289 3.26093 3.97617 3.32415 4.16231 3.43889C4.34845 3.55363 4.50076 3.71577 4.60366 3.90871C4.81037 4.29957 4.78453 4.76984 4.53695 5.13675L2.32097 8.61886C2.2086 8.79398 2.05383 8.93789 1.87103 9.03726C1.68822 9.13663 1.48329 9.18824 1.27523 9.18731Z" fill="white"/>
<path id="path843" d="M5.07865 9.18716C4.63141 9.18716 4.21988 8.94804 4.00378 8.56374C3.89756 8.37547 3.84459 8.16183 3.85055 7.94574C3.85651 7.72964 3.92117 7.51925 4.0376 7.33711L6.25077 3.86298C6.36259 3.67321 6.52314 3.5168 6.71578 3.40999C6.90841 3.30318 7.12612 3.24985 7.34631 3.25554C7.7973 3.2654 8.20602 3.51768 8.41272 3.91231C8.61802 4.30694 8.58795 4.78002 8.33286 5.14599L6.12017 8.62012C6.00814 8.79449 5.854 8.93784 5.67198 9.03694C5.48995 9.13604 5.2859 9.1877 5.07865 9.18716Z" fill="white"/>
<path id="ellipse845" d="M8.79685 9.21624C9.42733 9.21624 9.93843 8.71585 9.93843 8.0986C9.93843 7.48134 9.42733 6.98096 8.79685 6.98096C8.16638 6.98096 7.65527 7.48134 7.65527 8.0986C7.65527 8.71585 8.16638 9.21624 8.79685 9.21624Z" fill="white"/>
</g>
<path id="path849" d="M58.3903 7.04584C58.7351 7.04584 58.9414 7.29107 58.9414 7.69275V9.06924H59.4097V7.66127C59.4097 6.97819 59.0879 6.58215 58.4829 6.58215C58.2461 6.58215 57.8703 6.64698 57.6462 7.08248C57.5941 6.95403 57.5082 6.84208 57.3976 6.75853C57.287 6.67499 57.1559 6.62296 57.0181 6.60799C56.9313 6.59211 56.843 6.5869 56.755 6.59249C56.5624 6.60799 56.2194 6.72779 56.0912 6.99933V6.6343H55.6223V9.06924H56.0912V7.75523C56.0912 7.24409 56.4257 7.04584 56.7606 7.04584C57.0744 7.04584 57.2807 7.2859 57.2807 7.68758V9.06924H57.7467V7.75523C57.7467 7.34839 57.991 7.04114 58.3903 7.04584ZM53.9015 8.6624C54.1157 8.6671 54.3224 8.5816 54.4723 8.42656C54.6226 8.27153 54.7025 8.06059 54.6945 7.84402C54.6945 7.35355 54.3337 7.04584 53.9015 7.04584C53.4688 7.04584 53.1085 7.35355 53.1085 7.84402C53.1 8.06012 53.1799 8.27059 53.3293 8.42515C53.4787 8.58019 53.6845 8.66616 53.8977 8.6624H53.9015ZM53.9015 9.11904C53.2166 9.11904 52.6448 8.61307 52.6448 7.8412C52.6448 7.06933 53.2166 6.57933 53.9015 6.57933C54.5864 6.57933 55.1629 7.06933 55.1629 7.8412C55.1629 8.61307 54.5832 9.12139 53.8982 9.12139L53.9015 9.11904ZM50.2325 7.8412L50.2278 7.84402C50.2278 7.07215 50.8145 6.58215 51.5042 6.57933C51.6774 6.57598 51.8495 6.60904 52.0091 6.67637C52.1688 6.7437 52.3125 6.8438 52.4311 6.9702L52.0759 7.27275C52.0005 7.19867 51.9111 7.14028 51.813 7.10093C51.7149 7.06158 51.6099 7.04206 51.5042 7.04349C51.072 7.04349 50.6962 7.35121 50.6962 7.8412C50.6962 8.17241 50.893 8.47073 51.1951 8.59757C51.4971 8.72441 51.8448 8.65394 52.0759 8.41999L52.4362 8.72254C52.3173 8.85023 52.1729 8.95152 52.0123 9.01982C51.8518 9.08813 51.6786 9.12193 51.5042 9.11904C50.8197 9.11904 50.2325 8.61307 50.2325 7.8412ZM48.7324 8.6018C48.7319 8.55923 48.7398 8.51698 48.7557 8.47746C48.7715 8.43794 48.795 8.40193 48.8247 8.37148C48.8545 8.34103 48.8899 8.31673 48.9291 8.29999C48.9682 8.28324 49.0103 8.27437 49.0528 8.27388C49.0954 8.27437 49.1375 8.28324 49.1766 8.29999C49.2157 8.31673 49.2512 8.34103 49.281 8.37148C49.3107 8.40193 49.3342 8.43794 49.35 8.47746C49.3658 8.51698 49.3737 8.55923 49.3732 8.6018C49.369 8.68424 49.3336 8.76199 49.274 8.81917C49.2145 8.87635 49.1354 8.90866 49.0528 8.90951C48.9703 8.90866 48.8912 8.87635 48.8316 8.81917C48.7721 8.76199 48.7366 8.68424 48.7324 8.6018Z" fill="white"/>
<path id="path851" fill-rule="evenodd" clip-rule="evenodd" d="M50.0144 3.53878H48.3462L47.1769 6.55345L46.0137 3.53878H44.3455L46.3735 8.3025L45.1122 11.452H46.7682L50.0144 3.53878ZM39.8689 6.18842C39.8689 6.94949 40.5341 7.45029 41.1876 7.45029C41.8298 7.45029 42.4607 6.98425 42.4607 6.18795C42.4607 5.39165 41.8298 4.92515 41.1876 4.92515C40.5341 4.92515 39.8689 5.42689 39.8689 6.18842ZM42.4607 8.8484V8.24565C42.1224 8.75773 41.3332 8.95128 40.9282 8.95128C39.5875 8.95128 38.2462 7.89424 38.2462 6.18795C38.2462 4.48213 39.587 3.42509 40.9282 3.42509C41.266 3.42509 42.0553 3.53784 42.4607 4.12978V3.54066H44.0157V8.84934L42.4607 8.8484ZM37.8037 8.8484H36.2487V8.18881C35.9889 8.67739 35.3589 8.96209 34.705 8.96209C33.3525 8.96209 32.1578 7.88203 32.1578 6.20956C32.1578 4.50562 33.3525 3.42415 34.705 3.42415C35.358 3.42415 35.9899 3.69663 36.2487 4.18569V0.646729H37.8037V8.8484ZM36.2149 6.17621C36.2149 5.38038 35.6403 4.91387 34.9981 4.91387C34.3329 4.91387 33.7804 5.4142 33.7804 6.17621C33.7804 6.96264 34.3329 7.46062 34.9977 7.46062C35.6521 7.46156 36.2149 6.93821 36.2149 6.17621ZM28.3131 6.03903C28.3131 5.23192 28.7302 4.95897 29.2822 4.95897C29.8117 4.95897 30.195 5.31132 30.195 6.01601V8.84746H31.7613V5.67541C31.7613 4.16361 31.0172 3.42415 29.8338 3.42415C29.2141 3.42415 28.5945 3.7765 28.3126 4.31112V3.53878H26.7473V8.84746H28.3131V6.03903ZM23.5668 8.9386C22.0795 8.9386 20.8388 7.84727 20.8388 6.17574C20.8388 4.50327 22.0781 3.42274 23.5668 3.42274C25.0556 3.42274 26.3057 4.50327 26.3057 6.17574C26.3057 7.84821 25.0542 8.9386 23.5668 8.9386ZM23.5668 7.39297C24.2198 7.39297 24.7615 6.91472 24.7615 6.17621C24.7615 5.45977 24.2203 4.97072 23.5668 4.97072C23.4095 4.96825 23.2533 4.99785 23.1077 5.0577C22.9622 5.11754 22.8304 5.20639 22.7203 5.31883C22.6095 5.43187 22.5227 5.56602 22.4648 5.71331C22.4069 5.8606 22.3793 6.01802 22.3834 6.17621C22.3839 6.91566 22.9246 7.39297 23.5668 7.39297ZM18.0309 4.95944C18.4927 4.95944 18.8986 5.32353 18.8986 6.01648V8.8484H20.4536V5.83326C20.4536 4.23032 19.6742 3.42321 18.425 3.42321C18.0539 3.42321 17.3548 3.53596 16.8475 4.36656C16.5543 3.75254 15.9911 3.43402 15.1586 3.43402C14.8696 3.43255 14.5862 3.51435 14.3425 3.66964C14.0987 3.82493 13.9048 4.04715 13.784 4.30971V3.53925H12.2168V8.84793H13.7826V6.03903C13.7826 5.23192 14.2223 4.95897 14.6954 4.95897C15.1464 4.95897 15.5513 5.31132 15.5631 5.98218V8.84793H17.1294V6.03903C17.1294 5.26716 17.5352 4.95944 18.0309 4.95944Z" fill="white"/>
</g>
</g>
<defs>
<clipPath id="clip0_1476_954">
<rect width="59.3654" height="10.8053" fill="white" transform="translate(0.0444336 0.646729)"/>
</clipPath>
</defs>
</svg>
